<?xml version="1.0" encoding="UTF-8" standalone="no"?>
<!-- Created with Inkscape (http://www.inkscape.org/) -->

<svg
   xmlns:ns0="http://www.iki.fi/pav/software/textext/"
   xmlns:dc="http://purl.org/dc/elements/1.1/"
   xmlns:cc="http://creativecommons.org/ns#"
   xmlns:rdf="http://www.w3.org/1999/02/22-rdf-syntax-ns#"
   xmlns:svg="http://www.w3.org/2000/svg"
   xmlns="http://www.w3.org/2000/svg"
   xmlns:sodipodi="http://sodipodi.sourceforge.net/DTD/sodipodi-0.dtd"
   xmlns:inkscape="http://www.inkscape.org/namespaces/inkscape"
   width="524.40942"
   height="372.04724"
   id="svg2"
   version="1.1"
   inkscape:version="0.48.4 r9939"
   sodipodi:docname="AGWgraph2.tex">
  <sodipodi:namedview
     id="base"
     pagecolor="#ffffff"
     bordercolor="#666666"
     borderopacity="1.0"
     inkscape:pageopacity="0.0"
     inkscape:pageshadow="2"
     inkscape:zoom="1.5898519"
     inkscape:cx="126.82628"
     inkscape:cy="80.539054"
     inkscape:document-units="px"
     inkscape:current-layer="content"
     showgrid="true"
     inkscape:window-width="2560"
     inkscape:window-height="1381"
     inkscape:window-x="0"
     inkscape:window-y="27"
     inkscape:window-maximized="1">
    <inkscape:grid
       type="xygrid"
       id="grid2985"
       empspacing="15"
       visible="true"
       enabled="true"
       snapvisiblegridlinesonly="true" />
  </sodipodi:namedview>
  <defs
     id="defs4">
    <marker
       inkscape:stockid="Arrow1Lstart"
       orient="auto"
       refY="0.0"
       refX="0.0"
       id="Arrow1Lstart"
       style="overflow:visible">
      <path
         id="path3763"
         d="M 0.0,0.0 L 5.0,-5.0 L -12.5,0.0 L 5.0,5.0 L 0.0,0.0 z "
         style="fill-rule:evenodd;stroke:#000000;stroke-width:1.0pt"
         transform="scale(0.8) translate(12.5,0)" />
    </marker>
    <marker
       inkscape:stockid="Arrow1Lstart"
       orient="auto"
       refY="0"
       refX="0"
       id="Arrow1Lstart-0"
       style="overflow:visible">
      <path
         inkscape:connector-curvature="0"
         id="path3763-4"
         d="M 0,0 5,-5 -12.5,0 5,5 0,0 z"
         style="fill-rule:evenodd;stroke:#000000;stroke-width:1pt"
         transform="matrix(0.8,0,0,0.8,10,0)" />
    </marker>
    <marker
       inkscape:stockid="Arrow1Lstart"
       orient="auto"
       refY="0"
       refX="0"
       id="marker5507"
       style="overflow:visible">
      <path
         inkscape:connector-curvature="0"
         id="path5509"
         d="M 0,0 5,-5 -12.5,0 5,5 0,0 z"
         style="fill-rule:evenodd;stroke:#000000;stroke-width:1pt"
         transform="matrix(0.8,0,0,0.8,10,0)" />
    </marker>
    <marker
       inkscape:stockid="Arrow1Lstart"
       orient="auto"
       refY="0"
       refX="0"
       id="marker5511"
       style="overflow:visible">
      <path
         inkscape:connector-curvature="0"
         id="path5513"
         d="M 0,0 5,-5 -12.5,0 5,5 0,0 z"
         style="fill-rule:evenodd;stroke:#000000;stroke-width:1pt"
         transform="matrix(0.8,0,0,0.8,10,0)" />
    </marker>
    <marker
       inkscape:stockid="Arrow1Lstart"
       orient="auto"
       refY="0"
       refX="0"
       id="marker5515"
       style="overflow:visible">
      <path
         inkscape:connector-curvature="0"
         id="path5517"
         d="M 0,0 5,-5 -12.5,0 5,5 0,0 z"
         style="fill-rule:evenodd;stroke:#000000;stroke-width:1pt"
         transform="matrix(0.8,0,0,0.8,10,0)" />
    </marker>
    <marker
       inkscape:stockid="Arrow1Lstart"
       orient="auto"
       refY="0"
       refX="0"
       id="marker5519"
       style="overflow:visible">
      <path
         inkscape:connector-curvature="0"
         id="path5521"
         d="M 0,0 5,-5 -12.5,0 5,5 0,0 z"
         style="fill-rule:evenodd;stroke:#000000;stroke-width:1pt"
         transform="matrix(0.8,0,0,0.8,10,0)" />
    </marker>
    <marker
       inkscape:stockid="Arrow1Lstart"
       orient="auto"
       refY="0"
       refX="0"
       id="marker5523"
       style="overflow:visible">
      <path
         inkscape:connector-curvature="0"
         id="path5525"
         d="M 0,0 5,-5 -12.5,0 5,5 0,0 z"
         style="fill-rule:evenodd;stroke:#000000;stroke-width:1pt"
         transform="matrix(0.8,0,0,0.8,10,0)" />
    </marker>
    <marker
       inkscape:stockid="Arrow1Lstart"
       orient="auto"
       refY="0"
       refX="0"
       id="marker5527"
       style="overflow:visible">
      <path
         inkscape:connector-curvature="0"
         id="path5529"
         d="M 0,0 5,-5 -12.5,0 5,5 0,0 z"
         style="fill-rule:evenodd;stroke:#000000;stroke-width:1pt"
         transform="matrix(0.8,0,0,0.8,10,0)" />
    </marker>
    <marker
       inkscape:stockid="Arrow1Lstart"
       orient="auto"
       refY="0"
       refX="0"
       id="marker5531"
       style="overflow:visible">
      <path
         inkscape:connector-curvature="0"
         id="path5533"
         d="M 0,0 5,-5 -12.5,0 5,5 0,0 z"
         style="fill-rule:evenodd;stroke:#000000;stroke-width:1pt"
         transform="matrix(0.8,0,0,0.8,10,0)" />
    </marker>
    <marker
       inkscape:stockid="Arrow1Lstart"
       orient="auto"
       refY="0"
       refX="0"
       id="marker5531-3"
       style="overflow:visible">
      <path
         inkscape:connector-curvature="0"
         id="path5533-2"
         d="M 0,0 5,-5 -12.5,0 5,5 0,0 z"
         style="fill-rule:evenodd;stroke:#000000;stroke-width:1pt"
         transform="matrix(0.8,0,0,0.8,10,0)" />
    </marker>
    <marker
       inkscape:stockid="Arrow1Lstart"
       orient="auto"
       refY="0"
       refX="0"
       id="Arrow1Lstart-9"
       style="overflow:visible">
      <path
         inkscape:connector-curvature="0"
         id="path3763-1"
         d="M 0,0 5,-5 -12.5,0 5,5 0,0 z"
         style="fill-rule:evenodd;stroke:#000000;stroke-width:1pt"
         transform="matrix(0.8,0,0,0.8,10,0)" />
    </marker>
    <marker
       inkscape:stockid="Arrow1Lstart"
       orient="auto"
       refY="0"
       refX="0"
       id="marker6101"
       style="overflow:visible">
      <path
         inkscape:connector-curvature="0"
         id="path6103"
         d="M 0,0 5,-5 -12.5,0 5,5 0,0 z"
         style="fill-rule:evenodd;stroke:#000000;stroke-width:1pt"
         transform="matrix(0.8,0,0,0.8,10,0)" />
    </marker>
    <marker
       inkscape:stockid="Arrow1Lstart"
       orient="auto"
       refY="0"
       refX="0"
       id="marker6105"
       style="overflow:visible">
      <path
         inkscape:connector-curvature="0"
         id="path6107"
         d="M 0,0 5,-5 -12.5,0 5,5 0,0 z"
         style="fill-rule:evenodd;stroke:#000000;stroke-width:1pt"
         transform="matrix(0.8,0,0,0.8,10,0)" />
    </marker>
    <marker
       inkscape:stockid="Arrow1Lstart"
       orient="auto"
       refY="0"
       refX="0"
       id="marker6109"
       style="overflow:visible">
      <path
         inkscape:connector-curvature="0"
         id="path6111"
         d="M 0,0 5,-5 -12.5,0 5,5 0,0 z"
         style="fill-rule:evenodd;stroke:#000000;stroke-width:1pt"
         transform="matrix(0.8,0,0,0.8,10,0)" />
    </marker>
    <marker
       inkscape:stockid="Arrow1Lstart"
       orient="auto"
       refY="0"
       refX="0"
       id="marker6113"
       style="overflow:visible">
      <path
         inkscape:connector-curvature="0"
         id="path6115"
         d="M 0,0 5,-5 -12.5,0 5,5 0,0 z"
         style="fill-rule:evenodd;stroke:#000000;stroke-width:1pt"
         transform="matrix(0.8,0,0,0.8,10,0)" />
    </marker>
    <marker
       inkscape:stockid="Arrow1Lstart"
       orient="auto"
       refY="0"
       refX="0"
       id="marker6117"
       style="overflow:visible">
      <path
         inkscape:connector-curvature="0"
         id="path6119"
         d="M 0,0 5,-5 -12.5,0 5,5 0,0 z"
         style="fill-rule:evenodd;stroke:#000000;stroke-width:1pt"
         transform="matrix(0.8,0,0,0.8,10,0)" />
    </marker>
    <marker
       inkscape:stockid="Arrow1Lstart"
       orient="auto"
       refY="0"
       refX="0"
       id="marker6121"
       style="overflow:visible">
      <path
         inkscape:connector-curvature="0"
         id="path6123"
         d="M 0,0 5,-5 -12.5,0 5,5 0,0 z"
         style="fill-rule:evenodd;stroke:#000000;stroke-width:1pt"
         transform="matrix(0.8,0,0,0.8,10,0)" />
    </marker>
    <marker
       inkscape:stockid="Arrow1Lstart"
       orient="auto"
       refY="0"
       refX="0"
       id="marker6125"
       style="overflow:visible">
      <path
         inkscape:connector-curvature="0"
         id="path6127"
         d="M 0,0 5,-5 -12.5,0 5,5 0,0 z"
         style="fill-rule:evenodd;stroke:#000000;stroke-width:1pt"
         transform="matrix(0.8,0,0,0.8,10,0)" />
    </marker>
  </defs>
  <metadata
     id="metadata7">
    <rdf:RDF>
      <cc:Work
         rdf:about="">
        <dc:format>image/svg+xml</dc:format>
        <dc:type
           rdf:resource="http://purl.org/dc/dcmitype/StillImage" />
        <dc:title></dc:title>
      </cc:Work>
    </rdf:RDF>
  </metadata>
  <g
     inkscape:label="Layer 1"
     inkscape:groupmode="layer"
     id="layer1"
     transform="translate(0,-680.31491)">
    <path
       style="fill:none;stroke:#ff0000;stroke-width:0.81980938000000003;stroke-opacity:1;marker-start:url(#Arrow1Lstart)"
       d="m 180,767.36215 c 47.71387,174.31157 15,195 15,195"
       id="path3757"
       inkscape:connector-curvature="0"
       sodipodi:nodetypes="cc" />
    <path
       style="fill:none;stroke:#ff0000;stroke-width:0.81980938000000003;stroke-opacity:1;marker-start:url(#Arrow1Lstart)"
       d="m 90,812.36215 c 23.13672,-48.48008 69.94532,-44.56095 90,-45"
       id="path4203"
       inkscape:connector-curvature="0"
       sodipodi:nodetypes="cc" />
    <path
       style="fill:none;stroke:#ff0000;stroke-width:0.81980938000000003;stroke-opacity:1;marker-start:url(#Arrow1Lstart)"
       d="m 105,902.36215 c -28.62832,-31.69301 -34.085548,-42.46047 -15,-90"
       id="path4387"
       inkscape:connector-curvature="0"
       sodipodi:nodetypes="cc" />
    <path
       style="fill:none;stroke:#ff0000;stroke-width:0.81980938000000003;stroke-opacity:1;marker-start:url(#Arrow1Lstart)"
       d="m 195,962.36215 c -57.25665,15.84649 -82.2369,-55.87661 -90,-60"
       id="path4571"
       inkscape:connector-curvature="0"
       sodipodi:nodetypes="cc" />
    <path
       style="fill:none;stroke:#000000;stroke-width:0.81980938;stroke-opacity:1;marker-start:url(#Arrow1Lstart)"
       d="m 180,767.36215 c -39.14358,40.05503 -59.89367,71.94842 -75,135"
       id="path4755"
       inkscape:connector-curvature="0"
       sodipodi:nodetypes="cc" />
    <path
       style="fill:none;stroke:#000000;stroke-width:0.81980938;stroke-opacity:1;marker-start:url(#Arrow1Lstart)"
       d="m 195,962.36215 c -23.96713,-124.03546 -78.54834,-137.85073 -105,-150"
       id="path4939"
       inkscape:connector-curvature="0"
       sodipodi:nodetypes="cc" />
    <path
       style="fill:none;stroke:#000000;stroke-width:0.81980938;stroke-opacity:1;marker-start:url(#Arrow1Lstart)"
       d="m 180,767.36215 c 129.02079,69.87894 2.23348,-145.94813 0,0"
       id="path5125"
       inkscape:connector-curvature="0"
       sodipodi:nodetypes="cc" />
    <path
       style="fill:none;stroke:#000000;stroke-width:0.81980938;stroke-opacity:1;marker-start:url(#Arrow1Lstart)"
       d="m 90,812.36215 c -105.188271,175.17302 -80.1180245,245.29025 105,150"
       id="path5311"
       inkscape:connector-curvature="0"
       sodipodi:nodetypes="cc" />
    <path
       style="fill:none;stroke:#000000;stroke-opacity:1;marker-start:url(#marker5531)"
       d="m 195,282.04724 c 35.8603,89.65665 92.03474,23.60313 0,0"
       id="path5649"
       inkscape:connector-curvature="0"
       transform="translate(0,680.31491)" />
    <path
       style="fill:none;stroke:#0000ff;stroke-width:0.81980938000000003;stroke-opacity:1;marker-start:url(#Arrow1Lstart)"
       d="m 426.67144,759.07655 c 47.71387,174.31157 15,195 15,195"
       id="path3757-3"
       inkscape:connector-curvature="0"
       sodipodi:nodetypes="cc" />
    <path
       style="fill:none;stroke:#0000ff;stroke-width:0.81980938000000003;stroke-opacity:1;marker-start:url(#Arrow1Lstart)"
       d="m 336.67144,804.07655 c 23.13672,-48.48008 69.94532,-44.56095 90,-45"
       id="path4203-9"
       inkscape:connector-curvature="0"
       sodipodi:nodetypes="cc" />
    <path
       style="fill:none;stroke:#000000;stroke-width:0.81980938000000003;stroke-opacity:1;marker-start:url(#Arrow1Lstart)"
       d="m 351.67144,894.07655 c -28.62832,-31.69301 -34.08555,-42.46047 -15,-90"
       id="path4387-4"
       inkscape:connector-curvature="0"
       sodipodi:nodetypes="cc" />
    <path
       style="fill:none;stroke:#0000ff;stroke-width:0.81980938000000003;stroke-opacity:1;marker-start:url(#Arrow1Lstart)"
       d="m 441.67144,954.07655 c -57.25665,15.84649 -82.2369,-55.87661 -90,-60"
       id="path4571-4"
       inkscape:connector-curvature="0"
       sodipodi:nodetypes="cc" />
    <path
       style="fill:none;stroke:#000000;stroke-width:0.81980938;stroke-opacity:1;marker-start:url(#Arrow1Lstart)"
       d="m 426.67144,759.07655 c -39.14358,40.05503 -59.89367,71.94842 -75,135"
       id="path4755-8"
       inkscape:connector-curvature="0"
       sodipodi:nodetypes="cc" />
    <path
       style="fill:none;stroke:#0000ff;stroke-width:0.81980938000000003;stroke-opacity:1;marker-start:url(#Arrow1Lstart)"
       d="m 441.67144,954.07655 c -23.96713,-124.03546 -78.54834,-137.85073 -105,-150"
       id="path4939-2"
       inkscape:connector-curvature="0"
       sodipodi:nodetypes="cc" />
    <path
       style="fill:none;stroke:#000000;stroke-width:0.81980938;stroke-opacity:1;marker-start:url(#Arrow1Lstart)"
       d="m 426.67144,759.07655 c 129.02079,69.87894 2.23348,-145.94813 0,0"
       id="path5125-5"
       inkscape:connector-curvature="0"
       sodipodi:nodetypes="cc" />
    <path
       style="fill:none;stroke:#000000;stroke-width:0.81980938;stroke-opacity:1;marker-start:url(#Arrow1Lstart)"
       d="m 336.67144,804.07655 c -105.18827,175.17302 -80.11802,245.29025 105,150"
       id="path5311-3"
       inkscape:connector-curvature="0"
       sodipodi:nodetypes="cc" />
    <path
       style="fill:none;stroke:#000000;stroke-opacity:1;marker-start:url(#marker5531)"
       d="m 441.67144,954.07655 c 35.8603,89.65665 92.03474,23.60313 0,0"
       id="path5649-1"
       inkscape:connector-curvature="0" />
    <flowRoot
       xml:space="preserve"
       id="flowRoot6205"
       style="fill:none;stroke:#000000;stroke-opacity:1"
       transform="translate(0,680.31491)"><flowRegion
         id="flowRegion6207"><rect
           id="rect6209"
           width="19.124796"
           height="12.453355"
           x="208.5937"
           y="270.19659" /></flowRegion><flowPara
         id="flowPara6211">www</flowPara></flowRoot>    <g
       ns0:preamble=""
       ns0:text="$R$"
       word-spacing="normal"
       letter-spacing="normal"
       font-size-adjust="none"
       font-stretch="normal"
       font-weight="normal"
       font-variant="normal"
       font-style="normal"
       stroke-miterlimit="10.433"
       xml:space="preserve"
       transform="matrix(2.7226723,0,0,-2.7226723,-506.70997,2732.5677)"
       id="content"
       style="font-style:normal;font-variant:normal;font-weight:normal;font-stretch:normal;letter-spacing:normal;word-spacing:normal;text-anchor:start;fill:none;stroke:#000000;stroke-linecap:butt;stroke-linejoin:miter;stroke-miterlimit:10.43299961;stroke-opacity:1;stroke-dasharray:none;stroke-dashoffset:0" />  </g>
</svg>
