<?xml version="1.0" encoding="UTF-8" standalone="no"?>
<!-- Created with Inkscape (http://www.inkscape.org/) -->

<svg
   xmlns:dc="http://purl.org/dc/elements/1.1/"
   xmlns:cc="http://creativecommons.org/ns#"
   xmlns:rdf="http://www.w3.org/1999/02/22-rdf-syntax-ns#"
   xmlns:svg="http://www.w3.org/2000/svg"
   xmlns="http://www.w3.org/2000/svg"
   xmlns:xlink="http://www.w3.org/1999/xlink"
   xmlns:sodipodi="http://sodipodi.sourceforge.net/DTD/sodipodi-0.dtd"
   xmlns:inkscape="http://www.inkscape.org/namespaces/inkscape"
   width="210mm"
   height="297mm"
   id="svg4241"
   version="1.1"
   inkscape:version="0.48.4 r9939"
   sodipodi:docname="bg.pdf">
  <defs
     id="defs3">
    <linearGradient
       inkscape:collect="always"
       id="linearGradient4259">
      <stop
         style="stop-color:#d32d00;stop-opacity:1"
         offset="0"
         id="stop4261" />
      <stop
         style="stop-color:#ffffff;stop-opacity:1"
         offset="1"
         id="stop4263" />
    </linearGradient>
    <linearGradient
       inkscape:collect="always"
       xlink:href="#linearGradient4259"
       id="linearGradient4265"
       x1="-94.285713"
       y1="1903.7908"
       x2="357.14285"
       y2="80.933609"
       gradientUnits="userSpaceOnUse" />
    <filter
       color-interpolation-filters="sRGB"
       inkscape:collect="always"
       id="filter3466">
      <feGaussianBlur
         inkscape:collect="always"
         stdDeviation="3.2352817"
         id="feGaussianBlur3468" />
    </filter>
    <filter
       color-interpolation-filters="sRGB"
       inkscape:collect="always"
       id="filter3387">
      <feGaussianBlur
         inkscape:collect="always"
         stdDeviation="1.7344037"
         id="feGaussianBlur3389" />
    </filter>
    <filter
       color-interpolation-filters="sRGB"
       inkscape:collect="always"
       id="filter3474">
      <feGaussianBlur
         inkscape:collect="always"
         stdDeviation="1.6061345"
         id="feGaussianBlur3476" />
    </filter>
    <filter
       color-interpolation-filters="sRGB"
       inkscape:collect="always"
       id="filter3470">
      <feGaussianBlur
         inkscape:collect="always"
         stdDeviation="1.1694367"
         id="feGaussianBlur3472" />
    </filter>
    <filter
       color-interpolation-filters="sRGB"
       inkscape:collect="always"
       id="filter3700">
      <feGaussianBlur
         inkscape:collect="always"
         stdDeviation="1.5874831"
         id="feGaussianBlur3702" />
    </filter>
    <filter
       color-interpolation-filters="sRGB"
       inkscape:collect="always"
       id="filter3670">
      <feGaussianBlur
         inkscape:collect="always"
         stdDeviation="1.4864866"
         id="feGaussianBlur3672" />
    </filter>
  </defs>
  <sodipodi:namedview
     inkscape:document-units="mm"
     id="base"
     pagecolor="#ffffff"
     bordercolor="#666666"
     borderopacity="1.0"
     inkscape:pageopacity="0.0"
     inkscape:pageshadow="2"
     inkscape:zoom="0.35"
     inkscape:cx="-202.85714"
     inkscape:cy="520"
     inkscape:current-layer="layer1"
     showgrid="false"
     inkscape:window-width="1274"
     inkscape:window-height="1376"
     inkscape:window-x="0"
     inkscape:window-y="23"
     inkscape:window-maximized="0" />
  <metadata
     id="metadata4">
    <rdf:RDF>
      <cc:Work
         rdf:about="">
        <dc:format>image/svg+xml</dc:format>
        <dc:type
           rdf:resource="http://purl.org/dc/dcmitype/StillImage" />
        <dc:title></dc:title>
      </cc:Work>
    </rdf:RDF>
  </metadata>
  <g
     inkscape:label="Layer 1"
     inkscape:groupmode="layer"
     id="layer1">
    <rect
       style="fill:url(#linearGradient4265);fill-rule:evenodd;stroke:#000000;stroke-width:1px;stroke-linecap:butt;stroke-linejoin:miter;stroke-opacity:1;fill-opacity:1"
       id="rect4257"
       width="854.28571"
       height="1234.2858"
       x="-48.57143"
       y="-84.780678" />
    <rect
       style="fill:#ffffff;fill-opacity:0.2635659"
       id="rect5316"
       width="1039.9999"
       height="248.5714"
       x="-320"
       y="732.36218" />
    <rect
       style="fill:#ffffff;fill-opacity:0.2635659"
       id="rect5316-4"
       width="1157.1427"
       height="602.85712"
       x="-558.57135"
       y="558.07648" />
    <g
       style="opacity:0.7;display:inline"
       id="g4036"
       transform="matrix(-2.666336,-0.77505601,-0.78949572,2.7160113,1094.3868,526.05245)">
      <path
         transform="matrix(0.254211,0,0,0.254211,206.58577,132.64824)"
         d="m 185.65564,215.85391 c 44.38554,18.68246 43.02745,-46.79149 -0.22353,-25.61453 -79.85904,39.10135 -19.41652,-49.69941 -26.89852,38.90308 -4.05218,47.98636 57.79757,26.46217 24.29179,-8.12791 -61.86539,-63.86748 41.26692,-33.82417 -45.31113,-13.5603 -46.889927,10.97474 -7.30658,63.14601 15.23669,20.5912 41.62412,-78.57362 44.92087,28.79493 -1.10531,-47.2838 -24.92738,-41.2036 -62.313277,12.56421 -14.875,20.85397 87.59052,15.30631 -13.50428,51.62041 44.62802,-15.6627 31.48396,-36.43996 -31.20514,-55.3809 -24.42994,-7.70273 12.50979,88.03344 -53.26698,3.10824 28.68693,37.60372 z"
         inkscape:randomized="0"
         inkscape:rounded="1.88"
         inkscape:flatsided="false"
         sodipodi:arg2="-0.54381798"
         sodipodi:arg1="0.48689923"
         sodipodi:r2="26.272663"
         sodipodi:r1="25.691782"
         sodipodi:cy="203.83304"
         sodipodi:cx="162.94955"
         sodipodi:sides="5"
         id="path3674"
         style="fill:#ffffff;fill-opacity:1;stroke:none"
         sodipodi:type="star" />
      <path
         transform="matrix(0.8022122,0,0,0.8022122,74.752807,55.661334)"
         id="path3443"
         style="opacity:0.2;fill:#ffffff;fill-opacity:1;fill-rule:evenodd;stroke:none;filter:url(#filter3466)"
         d="M 355.18161,-47.68625 C 365.85766,-8.7142536 389.752,21.968041 324.30392,77.665812 258.85586,133.36359 274.12404,228.4141 310.16512,267.26223 c 36.04107,38.84812 44.61371,32.72576 8.85453,-6.7902 -35.75921,-39.51593 -52.66041,-126.30165 9.41044,-179.960827 62.07083,-53.659166 38.23577,-89.3285506 26.80642,-127.91446"
         sodipodi:nodetypes="csccsc"
         inkscape:connector-curvature="0" />
      <path
         transform="matrix(0.8022122,0,0,0.8022122,74.752807,55.661334)"
         id="path3385"
         style="fill:#ffffff;fill-opacity:1;fill-rule:evenodd;stroke:none;filter:url(#filter3387)"
         d="M 348.37198,7.7413837 C 356.95697,39.080156 376.17126,63.752885 323.54212,108.54145 270.913,153.33002 283.19069,229.76353 312.17261,261.0027 c 28.98191,31.23916 35.87548,26.31595 7.12024,-5.46024 -28.75525,-31.77617 -42.34611,-101.56367 7.56727,-144.71293 49.91337,-43.14925 30.74675,-71.832275 21.556,-102.8605823"
         sodipodi:nodetypes="csccsc"
         inkscape:connector-curvature="0" />
      <g
         transform="matrix(0.6107311,0.5201462,0.5201462,-0.6107311,73.7969,164.03559)"
         id="g3334">
        <path
           id="path2454"
           style="fill:#ffffff;fill-opacity:1;fill-rule:evenodd;stroke:none"
           d="m 236.05574,132.77327 c 0.005,-7.7e-4 1.8e-4,-6.2e-4 0,0 -0.0164,0.0585 0.0345,-0.0171 0,0 -0.45875,0.22658 -0.42009,-0.20759 -0.25268,-0.38743 0.42823,-0.4601 1.17153,-0.11971 1.4953,0.30271 0.81961,1.06935 0.0957,2.54934 -0.90808,3.18939 -2.12394,1.35425 -4.80913,-0.0451 -5.91613,-2.04182 -2.0746,-3.74185 0.36475,-8.21358 3.8968,-9.96648 6.06355,-3.00927 13.0418,0.93026 15.64838,6.67973 4.18767,9.23705 -1.81346,19.58752 -10.60945,23.285 -13.4171,5.64006 -28.15769,-3.09016 -33.2136,-15.91562 -7.39722,-18.76471 4.84001,-39.071442 22.83804,-45.784199 25.44653,-9.490829 52.65921,7.145931 61.35879,31.625479 m -54.33737,9.01324 c 0.003,0.004 6.2e-4,-1.3e-4 0,0 -0.0594,0.013 -0.004,0.0384 0,0 0.0235,-0.23624 0.25575,-0.38827 0.43264,-0.33388 0.60078,0.18476 0.65762,0.97692 0.4376,1.46154 -0.55698,1.22679 -2.20345,1.28572 -3.241,0.70193 -2.1953,-1.23523 -2.22631,-4.26302 -0.98683,-6.18028 2.32283,-3.59304 7.41643,-3.54861 10.62687,-1.25927 5.51144,3.9302 5.32491,11.94151 1.48201,16.94976 -6.17398,8.04621 -18.1311,7.63034 -25.53714,1.6144 -11.29692,-9.17652 -10.5426,-26.29178 -1.61268,-36.79471 13.06521,-15.366623 36.9357,-14.357481 51.14414,-1.43039 19.76238,17.98016 7.08595,26.66612 21.59176,16.25766"
           sodipodi:nodetypes="csssssssssssccsssssssssssc"
           inkscape:connector-curvature="0" />
        <path
           sodipodi:nodetypes="csssssssssssccsssssssssssc"
           d="m 207.73997,83.655621 c 0.002,0.0014 -8e-5,2.99e-4 0,0 0.007,-0.02804 0.0101,0.01536 0,0 -0.13392,-0.204042 -0.22293,-0.01614 -0.19755,0.09828 0.065,0.292702 0.45291,0.332326 0.68815,0.236832 0.59547,-0.241735 0.65539,-1.025344 0.3972,-1.531142 -0.54627,-1.070204 -1.98878,-1.143533 -2.92652,-0.589849 -1.75743,1.037613 -1.83474,3.466173 -0.80568,5.040595 1.76661,2.70284 5.58855,2.76886 8.04987,1.034109 3.95435,-2.787044 3.98736,-8.494049 1.26328,-12.140204 -4.15524,-5.561759 -12.32726,-5.533197 -17.5058,-1.480144 -7.57664,5.929962 -7.45076,17.238629 -1.67072,24.348497 8.17212,10.052285 23.38414,9.785775 32.87734,1.820155 M 207.73997,83.655621 c 0.002,-8.39e-4 2.4e-4,1.97e-4 0,0 -0.0213,-0.01971 0.008,-0.0167 0,0 -0.0474,0.102831 0.0114,0.221483 0.0973,0.241864 0.29173,0.06918 0.50652,-0.24288 0.53315,-0.495351 0.0674,-0.639145 -0.59554,-1.061239 -1.16334,-1.071852 -1.20134,-0.02246 -1.94573,1.215305 -1.89927,2.303327 0.0871,2.039028 2.19269,3.251581 4.06626,3.085809 3.21641,-0.284593 5.07558,-3.62451 4.7053,-6.612885 -0.5949,-4.801091 -5.61303,-7.519399 -10.11265,-6.834815 -6.86358,1.044253 -10.68911,8.265592 -9.55443,14.743007 1.66015,9.47702 11.72132,14.830105 20.68862,12.946885 12.47252,-2.619334 9.35794,-9.254816 12.80867,-1.46886"
           style="fill:#ffffff;fill-opacity:1;fill-rule:evenodd;stroke:none"
           id="path3257"
           inkscape:connector-curvature="0" />
        <path
           id="path3373"
           style="fill:#ffffff;fill-opacity:1;fill-rule:evenodd;stroke:none"
           d="m 289.4035,100.44919 c -7.2e-4,0.001 -1.9e-4,-2e-5 0,0 0.0174,0.002 -0.008,0.007 0,0 0.11242,-0.0959 -0.007,-0.13514 -0.074,-0.11122 -0.17091,0.0612 -0.1653,0.29728 -0.0901,0.43136 0.19037,0.33939 0.66566,0.31598 0.94994,0.12253 0.6015,-0.40932 0.53619,-1.281457 0.13246,-1.80282 -0.75658,-0.977099 -2.22139,-0.839409 -3.08919,-0.101833 -1.48978,1.266213 -1.23966,3.567223 -0.0109,4.914323 1.97411,2.16424 5.40507,1.75138 7.38894,-0.16155 3.02616,-2.91793 2.3894,-7.825063 -0.43809,-10.628745 -4.13685,-4.102027 -10.92092,-3.168984 -14.75391,0.842409 -5.41925,5.671517 -4.10579,14.789856 1.39929,19.888896 m 8.58558,-13.39335 c 6.6e-4,0.001 -1e-4,1.6e-4 0,0 0.0102,-0.0143 0.0106,0.003 0,0 -0.0654,-0.0207 -0.13219,0.0236 -0.13792,0.0768 -0.0195,0.1805 0.18431,0.28588 0.33799,0.28273 0.38908,-0.008 0.59239,-0.43823 0.55572,-0.78014 -0.0776,-0.7234 -0.87762,-1.076738 -1.52772,-0.966339 -1.21833,0.206919 -1.78712,1.563789 -1.54548,2.676749 0.41483,1.91067 2.56223,2.77432 4.32941,2.3253 2.83912,-0.7214 4.09166,-3.94211 3.33924,-6.593334 -1.14772,-4.044084 -5.77595,-5.794732 -9.58119,-4.621969 -5.56741,1.715869 -8.02041,8.165933 -6.20918,13.410213 2.51921,7.2942 6.2693,4.92004 1.85355,7.58337"
           sodipodi:nodetypes="csssssssssssccsssssssssssc"
           inkscape:connector-curvature="0" />
      </g>
      <g
         transform="matrix(0.09613723,0,0,0.09613723,322.18794,164.04415)"
         id="g3292">
        <path
           style="fill:#ffffff;fill-opacity:1;stroke:none"
           d="m 126.21875,144.40625 c -35.38944,0 -64.125,28.70431 -64.125,64.09375 0,35.38944 28.73556,64.12499 64.125,64.125 35.38944,0 64.12499,-28.73556 64.125,-64.125 0,-35.38944 -28.73556,-64.09374 -64.125,-64.09375 z m 0,17.34375 c 25.8048,0 46.75,20.9452 46.75,46.75 0,25.80481 -20.9452,46.75 -46.75,46.75 -25.8048,0 -46.75,-20.9452 -46.75,-46.75 0,-25.8048 20.9452,-46.75 46.75,-46.75 z"
           id="path3294"
           inkscape:connector-curvature="0" />
        <path
           id="path3296"
           d="m 126.21875,178.46538 c -16.58823,0 -30.057569,13.45469 -30.057569,30.04292 0,16.58824 13.469339,30.05757 30.057569,30.05757 16.58823,0 30.05756,-13.46933 30.05757,-30.05757 0,-16.58823 -13.46934,-30.04292 -30.05757,-30.04292 z m 0,8.12961 c 12.09559,0 21.91332,9.81772 21.91332,21.91331 0,12.09559 -9.81773,21.91332 -21.91332,21.91332 -12.09559,0 -21.91332,-9.81773 -21.91332,-21.91332 0,-12.09559 9.81773,-21.91331 21.91332,-21.91331 z"
           style="fill:#ffffff;fill-opacity:1;stroke:none"
           inkscape:connector-curvature="0" />
      </g>
      <g
         transform="matrix(0.07942397,0,0,0.07942397,343.77012,153.94937)"
         id="g3298">
        <path
           style="fill:#ffffff;fill-opacity:1;stroke:none"
           d="m 126.21875,144.40625 c -35.38944,0 -64.125,28.70431 -64.125,64.09375 0,35.38944 28.73556,64.12499 64.125,64.125 35.38944,0 64.12499,-28.73556 64.125,-64.125 0,-35.38944 -28.73556,-64.09374 -64.125,-64.09375 z m 0,17.34375 c 25.8048,0 46.75,20.9452 46.75,46.75 0,25.80481 -20.9452,46.75 -46.75,46.75 -25.8048,0 -46.75,-20.9452 -46.75,-46.75 0,-25.8048 20.9452,-46.75 46.75,-46.75 z"
           id="path3300"
           inkscape:connector-curvature="0" />
        <path
           id="path3302"
           d="m 126.21875,178.46538 c -16.58823,0 -30.057569,13.45469 -30.057569,30.04292 0,16.58824 13.469339,30.05757 30.057569,30.05757 16.58823,0 30.05756,-13.46933 30.05757,-30.05757 0,-16.58823 -13.46934,-30.04292 -30.05757,-30.04292 z m 0,8.12961 c 12.09559,0 21.91332,9.81772 21.91332,21.91331 0,12.09559 -9.81773,21.91332 -21.91332,21.91332 -12.09559,0 -21.91332,-9.81773 -21.91332,-21.91332 0,-12.09559 9.81773,-21.91331 21.91332,-21.91331 z"
           style="fill:#ffffff;fill-opacity:1;stroke:none"
           inkscape:connector-curvature="0" />
      </g>
      <g
         transform="matrix(0.8022122,0,0,0.8022122,84.570115,64.942904)"
         id="g3310">
        <g
           id="g3280"
           transform="matrix(0.4010554,0,0,0.4010554,297.65753,82.48033)">
          <path
             id="path3282"
             d="m 126.21875,144.40625 c -35.38944,0 -64.125,28.70431 -64.125,64.09375 0,35.38944 28.73556,64.12499 64.125,64.125 35.38944,0 64.12499,-28.73556 64.125,-64.125 0,-35.38944 -28.73556,-64.09374 -64.125,-64.09375 z m 0,17.34375 c 25.8048,0 46.75,20.9452 46.75,46.75 0,25.80481 -20.9452,46.75 -46.75,46.75 -25.8048,0 -46.75,-20.9452 -46.75,-46.75 0,-25.8048 20.9452,-46.75 46.75,-46.75 z"
             style="fill:#ffffff;fill-opacity:1;stroke:none"
             inkscape:connector-curvature="0" />
          <path
             style="fill:#ffffff;fill-opacity:1;stroke:none"
             d="m 126.21875,178.46538 c -16.58823,0 -30.057569,13.45469 -30.057569,30.04292 0,16.58824 13.469339,30.05757 30.057569,30.05757 16.58823,0 30.05756,-13.46933 30.05757,-30.05757 0,-16.58823 -13.46934,-30.04292 -30.05757,-30.04292 z m 0,8.12961 c 12.09559,0 21.91332,9.81772 21.91332,21.91331 0,12.09559 -9.81773,21.91332 -21.91332,21.91332 -12.09559,0 -21.91332,-9.81773 -21.91332,-21.91332 0,-12.09559 9.81773,-21.91331 21.91332,-21.91331 z"
             id="path3284"
             inkscape:connector-curvature="0" />
        </g>
        <path
           sodipodi:type="arc"
           style="fill:#ffffff;fill-opacity:1;stroke:none"
           id="path3308"
           sodipodi:cx="171.6313"
           sodipodi:cy="207.84"
           sodipodi:rx="40.069565"
           sodipodi:ry="40.069565"
           d="m 211.70087,207.84 c 0,22.12981 -17.93976,40.06956 -40.06957,40.06956 -22.12981,0 -40.06956,-17.93975 -40.06956,-40.06956 0,-22.12981 17.93975,-40.06957 40.06956,-40.06957 22.12981,0 40.06957,17.93976 40.06957,40.06957 z"
           transform="matrix(0.3,0,0,0.3,296.78885,103.75465)" />
      </g>
      <g
         transform="matrix(0.1494824,0,0,0.1494824,319.75123,145.67208)"
         id="g3316">
        <g
           transform="matrix(0.4010554,0,0,0.4010554,297.65753,82.48033)"
           id="g3318">
          <path
             style="fill:#ffffff;fill-opacity:1;stroke:none"
             d="m 126.21875,144.40625 c -35.38944,0 -64.125,28.70431 -64.125,64.09375 0,35.38944 28.73556,64.12499 64.125,64.125 35.38944,0 64.12499,-28.73556 64.125,-64.125 0,-35.38944 -28.73556,-64.09374 -64.125,-64.09375 z m 0,17.34375 c 25.8048,0 46.75,20.9452 46.75,46.75 0,25.80481 -20.9452,46.75 -46.75,46.75 -25.8048,0 -46.75,-20.9452 -46.75,-46.75 0,-25.8048 20.9452,-46.75 46.75,-46.75 z"
             id="path3320"
             inkscape:connector-curvature="0" />
          <path
             id="path3322"
             d="m 126.21875,178.46538 c -16.58823,0 -30.057569,13.45469 -30.057569,30.04292 0,16.58824 13.469339,30.05757 30.057569,30.05757 16.58823,0 30.05756,-13.46933 30.05757,-30.05757 0,-16.58823 -13.46934,-30.04292 -30.05757,-30.04292 z m 0,8.12961 c 12.09559,0 21.91332,9.81772 21.91332,21.91331 0,12.09559 -9.81773,21.91332 -21.91332,21.91332 -12.09559,0 -21.91332,-9.81773 -21.91332,-21.91332 0,-12.09559 9.81773,-21.91331 21.91332,-21.91331 z"
             style="fill:#ffffff;fill-opacity:1;stroke:none"
             inkscape:connector-curvature="0" />
        </g>
        <path
           transform="matrix(0.3,0,0,0.3,296.78885,103.75465)"
           d="m 211.70087,207.84 c 0,22.12981 -17.93976,40.06956 -40.06957,40.06956 -22.12981,0 -40.06956,-17.93975 -40.06956,-40.06956 0,-22.12981 17.93975,-40.06957 40.06956,-40.06957 22.12981,0 40.06957,17.93976 40.06957,40.06957 z"
           sodipodi:ry="40.069565"
           sodipodi:rx="40.069565"
           sodipodi:cy="207.84"
           sodipodi:cx="171.6313"
           id="path3324"
           style="fill:#ffffff;fill-opacity:1;stroke:none"
           sodipodi:type="arc" />
      </g>
      <path
         transform="matrix(0.304811,0,0,0.304811,276.63543,54.507729)"
         d="m 185.65564,215.85391 c 44.38554,18.68246 43.02745,-46.79149 -0.22353,-25.61453 -79.85904,39.10135 -19.41652,-49.69941 -26.89852,38.90308 -4.05218,47.98636 57.79757,26.46217 24.29179,-8.12791 -61.86539,-63.86748 41.26692,-33.82417 -45.31113,-13.5603 -46.889927,10.97474 -7.30658,63.14601 15.23669,20.5912 41.62412,-78.57362 44.92087,28.79493 -1.10531,-47.2838 -24.92738,-41.2036 -62.313277,12.56421 -14.875,20.85397 87.59052,15.30631 -13.50428,51.62041 44.62802,-15.6627 31.48396,-36.43996 -31.20514,-55.3809 -24.42994,-7.70273 12.50979,88.03344 -53.26698,3.10824 28.68693,37.60372 z"
         inkscape:randomized="0"
         inkscape:rounded="1.88"
         inkscape:flatsided="false"
         sodipodi:arg2="-0.54381798"
         sodipodi:arg1="0.48689923"
         sodipodi:r2="26.272663"
         sodipodi:r1="25.691782"
         sodipodi:cy="203.83304"
         sodipodi:cx="162.94955"
         sodipodi:sides="5"
         id="path3330"
         style="fill:#ffffff;fill-opacity:1;stroke:none"
         sodipodi:type="star" />
      <path
         sodipodi:type="star"
         style="fill:#ffffff;fill-opacity:1;stroke:none"
         id="path3332"
         sodipodi:sides="5"
         sodipodi:cx="162.94955"
         sodipodi:cy="203.83304"
         sodipodi:r1="25.691782"
         sodipodi:r2="26.272663"
         sodipodi:arg1="0.48689923"
         sodipodi:arg2="-0.54381798"
         inkscape:flatsided="false"
         inkscape:rounded="1.88"
         inkscape:randomized="0"
         d="m 185.65564,215.85391 c 44.38554,18.68246 43.02745,-46.79149 -0.22353,-25.61453 -79.85904,39.10135 -19.41652,-49.69941 -26.89852,38.90308 -4.05218,47.98636 57.79757,26.46217 24.29179,-8.12791 -61.86539,-63.86748 41.26692,-33.82417 -45.31113,-13.5603 -46.889927,10.97474 -7.30658,63.14601 15.23669,20.5912 41.62412,-78.57362 44.92087,28.79493 -1.10531,-47.2838 -24.92738,-41.2036 -62.313277,12.56421 -14.875,20.85397 87.59052,15.30631 -13.50428,51.62041 44.62802,-15.6627 31.48396,-36.43996 -31.20514,-55.3809 -24.42994,-7.70273 12.50979,88.03344 -53.26698,3.10824 28.68693,37.60372 z"
         transform="matrix(0.1526295,0,0,0.1526295,313.61386,129.01655)" />
      <path
         sodipodi:nodetypes="csccsc"
         d="m 354.22109,61.871567 c 6.88698,25.140348 22.30093,44.933113 -19.91882,80.863053 -42.21973,35.92995 -32.37041,97.24585 -9.12076,122.30629 23.24965,25.06044 28.77975,21.11098 5.71195,-4.38027 -23.06782,-25.49124 -33.97058,-81.47563 6.07055,-116.09049 40.04112,-34.61486 24.66542,-57.624739 17.29249,-82.516029"
         style="fill:#ffffff;fill-opacity:1;fill-rule:evenodd;stroke:none"
         id="path3340"
         inkscape:connector-curvature="0" />
      <g
         id="g3347"
         transform="matrix(-0.332517,0.01849575,-0.01849575,-0.332517,442.83906,171.89961)">
        <path
           sodipodi:nodetypes="csssssssssssccsssssssssssc"
           d="m 236.05574,132.77327 c 0.005,-7.7e-4 1.8e-4,-6.2e-4 0,0 -0.0164,0.0585 0.0345,-0.0171 0,0 -0.45875,0.22658 -0.42009,-0.20759 -0.25268,-0.38743 0.42823,-0.4601 1.17153,-0.11971 1.4953,0.30271 0.81961,1.06935 0.0957,2.54934 -0.90808,3.18939 -2.12394,1.35425 -4.80913,-0.0451 -5.91613,-2.04182 -2.0746,-3.74185 0.36475,-8.21358 3.8968,-9.96648 6.06355,-3.00927 13.0418,0.93026 15.64838,6.67973 4.18767,9.23705 -1.81346,19.58752 -10.60945,23.285 -13.4171,5.64006 -28.15769,-3.09016 -33.2136,-15.91562 -7.39722,-18.76471 4.84001,-39.071442 22.83804,-45.784199 25.44653,-9.490829 52.65921,7.145931 61.35879,31.625479 m -54.33737,9.01324 c 0.003,0.004 6.2e-4,-1.3e-4 0,0 -0.0594,0.013 -0.004,0.0384 0,0 0.0235,-0.23624 0.25575,-0.38827 0.43264,-0.33388 0.60078,0.18476 0.65762,0.97692 0.4376,1.46154 -0.55698,1.22679 -2.20345,1.28572 -3.241,0.70193 -2.1953,-1.23523 -2.22631,-4.26302 -0.98683,-6.18028 2.32283,-3.59304 7.41643,-3.54861 10.62687,-1.25927 5.51144,3.9302 5.32491,11.94151 1.48201,16.94976 -6.17398,8.04621 -18.1311,7.63034 -25.53714,1.6144 -11.29692,-9.17652 -10.5426,-26.29178 -1.61268,-36.79471 13.06521,-15.366623 36.9357,-14.357481 51.14414,-1.43039 19.76238,17.98016 7.08595,26.66612 21.59176,16.25766"
           style="fill:#ffffff;fill-opacity:1;fill-rule:evenodd;stroke:none"
           id="path3349"
           inkscape:connector-curvature="0" />
        <path
           id="path3351"
           style="fill:#ffffff;fill-opacity:1;fill-rule:evenodd;stroke:none"
           d="m 205.61927,88.533492 c 0.002,0.0012 -6e-5,2.63e-4 0,0 0.005,-0.02463 0.009,0.01295 0,0 -0.12412,-0.171965 -0.19415,-0.0054 -0.1677,0.09293 0.0677,0.251583 0.40598,0.27102 0.6065,0.179053 0.5076,-0.232809 0.5294,-0.915354 0.28577,-1.34448 -0.51547,-0.907959 -1.77052,-0.915994 -2.56322,-0.399193 -1.48559,0.9685 -1.45906,3.07968 -0.50504,4.406734 1.63778,2.27818 4.9581,2.18812 7.02785,0.587305 3.32525,-2.571862 3.13385,-7.527301 0.62852,-10.587443 -3.82155,-4.667858 -10.91446,-4.327969 -15.25359,-0.609896 -6.34852,5.439852 -5.8032,15.251881 -0.51149,21.200988 7.48169,8.41115 20.67674,7.59324 28.61052,0.31236 M 205.61927,88.533492 c 0.002,-8.05e-4 2.1e-4,1.66e-4 0,0 -0.0192,-0.01629 0.006,-0.01479 0,0 -0.0372,0.0911 0.0184,0.191828 0.0937,0.206202 0.25591,0.04881 0.43034,-0.230368 0.44372,-0.450562 0.0338,-0.557425 -0.5579,-0.898277 -1.0512,-0.885596 -1.04374,0.02682 -1.64221,1.130007 -1.55992,2.072715 0.15422,1.766687 2.02882,2.738099 3.64884,2.521959 2.78115,-0.37107 4.26629,-3.342091 3.82962,-5.921977 -0.70154,-4.144821 -5.16252,-6.311052 -9.04218,-5.543276 -5.9179,1.171144 -8.96035,7.58739 -7.72559,13.166589 1.80657,8.162844 10.74693,12.421844 18.45869,10.441284 10.72622,-2.75472 7.76664,-8.394792 11.06239,-1.76898"
           sodipodi:nodetypes="csssssssssssccsssssssssssc"
           inkscape:connector-curvature="0" />
      </g>
      <g
         transform="matrix(0.3307441,0.03896083,-0.03896083,0.3307441,234.13606,102.6439)"
         id="g3353">
        <path
           id="path3355"
           style="fill:#ffffff;fill-opacity:1;fill-rule:evenodd;stroke:none"
           d="m 236.05574,132.77327 c 0.005,-7.7e-4 1.8e-4,-6.2e-4 0,0 -0.0164,0.0585 0.0345,-0.0171 0,0 -0.45875,0.22658 -0.42009,-0.20759 -0.25268,-0.38743 0.42823,-0.4601 1.17153,-0.11971 1.4953,0.30271 0.81961,1.06935 0.0957,2.54934 -0.90808,3.18939 -2.12394,1.35425 -4.80913,-0.0451 -5.91613,-2.04182 -2.0746,-3.74185 0.36475,-8.21358 3.8968,-9.96648 6.06355,-3.00927 13.0418,0.93026 15.64838,6.67973 4.18767,9.23705 -1.81346,19.58752 -10.60945,23.285 -13.4171,5.64006 -28.15769,-3.09016 -33.2136,-15.91562 -7.39722,-18.76471 4.84001,-39.071442 22.83804,-45.784199 25.44653,-9.490829 52.65921,7.145931 61.35879,31.625479 m -54.33737,9.01324 c 0.003,0.004 6.2e-4,-1.3e-4 0,0 -0.0594,0.013 -0.004,0.0384 0,0 0.0235,-0.23624 0.25575,-0.38827 0.43264,-0.33388 0.60078,0.18476 0.65762,0.97692 0.4376,1.46154 -0.55698,1.22679 -2.20345,1.28572 -3.241,0.70193 -2.1953,-1.23523 -2.22631,-4.26302 -0.98683,-6.18028 2.32283,-3.59304 7.41643,-3.54861 10.62687,-1.25927 5.51144,3.9302 5.32491,11.94151 1.48201,16.94976 -6.17398,8.04621 -18.1311,7.63034 -25.53714,1.6144 -11.29692,-9.17652 -10.5426,-26.29178 -1.61268,-36.79471 13.06521,-15.366623 36.9357,-14.357481 51.14414,-1.43039 19.76238,17.98016 7.08595,26.66612 21.59176,16.25766"
           sodipodi:nodetypes="csssssssssssccsssssssssssc"
           inkscape:connector-curvature="0" />
        <path
           sodipodi:nodetypes="csssssssssssccsssssssssssc"
           d="m 205.61927,88.533492 c 0.002,0.0012 -6e-5,2.63e-4 0,0 0.005,-0.02463 0.009,0.01295 0,0 -0.12412,-0.171965 -0.19415,-0.0054 -0.1677,0.09293 0.0677,0.251583 0.40598,0.27102 0.6065,0.179053 0.5076,-0.232809 0.5294,-0.915354 0.28577,-1.34448 -0.51547,-0.907959 -1.77052,-0.915994 -2.56322,-0.399193 -1.48559,0.9685 -1.45906,3.07968 -0.50504,4.406734 1.63778,2.27818 4.9581,2.18812 7.02785,0.587305 3.32525,-2.571862 3.13385,-7.527301 0.62852,-10.587443 -3.82155,-4.667858 -10.91446,-4.327969 -15.25359,-0.609896 -6.34852,5.439852 -5.8032,15.251881 -0.51149,21.200988 7.48169,8.41115 20.67674,7.59324 28.61052,0.31236 M 205.61927,88.533492 c 0.002,-8.05e-4 2.1e-4,1.66e-4 0,0 -0.0192,-0.01629 0.006,-0.01479 0,0 -0.0372,0.0911 0.0184,0.191828 0.0937,0.206202 0.25591,0.04881 0.43034,-0.230368 0.44372,-0.450562 0.0338,-0.557425 -0.5579,-0.898277 -1.0512,-0.885596 -1.04374,0.02682 -1.64221,1.130007 -1.55992,2.072715 0.15422,1.766687 2.02882,2.738099 3.64884,2.521959 2.78115,-0.37107 4.26629,-3.342091 3.82962,-5.921977 -0.70154,-4.144821 -5.16252,-6.311052 -9.04218,-5.543276 -5.9179,1.171144 -8.96035,7.58739 -7.72559,13.166589 1.80657,8.162844 10.74693,12.421844 18.45869,10.441284 10.72622,-2.75472 7.76664,-8.394792 11.06239,-1.76898"
           style="fill:#ffffff;fill-opacity:1;fill-rule:evenodd;stroke:none"
           id="path3357"
           inkscape:connector-curvature="0" />
      </g>
      <path
         transform="matrix(0.06375452,0,0,0.06375452,281.05234,136.57417)"
         d="m 185.65564,215.85391 c 44.38554,18.68246 43.02745,-46.79149 -0.22353,-25.61453 -79.85904,39.10135 -19.41652,-49.69941 -26.89852,38.90308 -4.05218,47.98636 57.79757,26.46217 24.29179,-8.12791 -61.86539,-63.86748 41.26692,-33.82417 -45.31113,-13.5603 -46.889927,10.97474 -7.30658,63.14601 15.23669,20.5912 41.62412,-78.57362 44.92087,28.79493 -1.10531,-47.2838 -24.92738,-41.2036 -62.313277,12.56421 -14.875,20.85397 87.59052,15.30631 -13.50428,51.62041 44.62802,-15.6627 31.48396,-36.43996 -31.20514,-55.3809 -24.42994,-7.70273 12.50979,88.03344 -53.26698,3.10824 28.68693,37.60372 z"
         inkscape:randomized="0"
         inkscape:rounded="1.88"
         inkscape:flatsided="false"
         sodipodi:arg2="-0.54381798"
         sodipodi:arg1="0.48689923"
         sodipodi:r2="26.272663"
         sodipodi:r1="25.691782"
         sodipodi:cy="203.83304"
         sodipodi:cx="162.94955"
         sodipodi:sides="5"
         id="path3375"
         style="fill:#ffffff;fill-opacity:1;stroke:none"
         sodipodi:type="star" />
      <path
         sodipodi:nodetypes="cccc"
         d="m 265.19856,97.699787 c 19.18829,25.586083 -1.10727,67.587363 46.43942,78.871913 1.74809,0.86503 0.0837,3.51562 -1.69626,2.8574 -47.54669,-11.28454 -25.60158,-56.10681 -44.78988,-81.692894"
         style="fill:#ffffff;fill-opacity:1;fill-rule:evenodd;stroke:none"
         id="path3377"
         inkscape:connector-curvature="0" />
      <path
         transform="matrix(0.8022122,0,0,0.8022122,74.752807,55.661334)"
         sodipodi:nodetypes="cccc"
         d="M 373.82647,9.1947481 C 321.49122,-12.306164 230.30772,63.25072 334.00723,218.82243 348.43662,241.37427 321.1875,232.13552 328.69961,231.38685 223.11475,58.84704 320.96767,-14.683318 373.56705,9.1947481"
         style="opacity:0.2;fill:#ffffff;fill-opacity:1;fill-rule:evenodd;stroke:none;filter:url(#filter3474)"
         id="path3447"
         inkscape:connector-curvature="0" />
      <path
         transform="matrix(0.8022122,0,0,0.8022122,74.752807,55.661334)"
         id="path3452"
         style="opacity:0.2;fill:#ffffff;fill-opacity:1;fill-rule:evenodd;stroke:none;filter:url(#filter3470)"
         d="m 245.33822,44.533623 c 20.69782,34.073191 -9.58261,83.715867 48.03426,103.490567 2.06364,1.2855 -0.32315,4.37173 -2.45146,3.33893 C 233.30414,131.58843 265.97366,78.646318 245.27584,44.573132"
         sodipodi:nodetypes="cccc"
         inkscape:connector-curvature="0" />
      <g
         id="g3490">
        <g
           id="g3270"
           transform="matrix(0.8607087,0,0,0.8607087,276.84221,78.286909)">
          <path
             id="path3263"
             d="m 126.21875,144.40625 c -35.38944,0 -64.125,28.70431 -64.125,64.09375 0,35.38944 28.73556,64.12499 64.125,64.125 35.38944,0 64.12499,-28.73556 64.125,-64.125 0,-35.38944 -28.73556,-64.09374 -64.125,-64.09375 z m 0,17.34375 c 25.8048,0 46.75,20.9452 46.75,46.75 0,25.80481 -20.9452,46.75 -46.75,46.75 -25.8048,0 -46.75,-20.9452 -46.75,-46.75 0,-25.8048 20.9452,-46.75 46.75,-46.75 z"
             style="fill:#ffffff;fill-opacity:1;stroke:none"
             inkscape:connector-curvature="0" />
          <path
             style="fill:#ffffff;fill-opacity:1;stroke:none"
             d="m 126.21875,178.46538 c -16.58823,0 -30.057569,13.45469 -30.057569,30.04292 0,16.58824 13.469339,30.05757 30.057569,30.05757 16.58823,0 30.05756,-13.46933 30.05757,-30.05757 0,-16.58823 -13.46934,-30.04292 -30.05757,-30.04292 z m 0,8.12961 c 12.09559,0 21.91332,9.81772 21.91332,21.91331 0,12.09559 -9.81773,21.91332 -21.91332,21.91332 -12.09559,0 -21.91332,-9.81773 -21.91332,-21.91332 0,-12.09559 9.81773,-21.91331 21.91332,-21.91331 z"
             id="path3268"
             inkscape:connector-curvature="0" />
        </g>
        <g
           transform="matrix(0.1504553,0,0,0.1504553,311.00012,181.56628)"
           id="g3286">
          <path
             style="fill:#ffffff;fill-opacity:1;stroke:none"
             d="m 126.21875,144.40625 c -35.38944,0 -64.125,28.70431 -64.125,64.09375 0,35.38944 28.73556,64.12499 64.125,64.125 35.38944,0 64.12499,-28.73556 64.125,-64.125 0,-35.38944 -28.73556,-64.09374 -64.125,-64.09375 z m 0,17.34375 c 25.8048,0 46.75,20.9452 46.75,46.75 0,25.80481 -20.9452,46.75 -46.75,46.75 -25.8048,0 -46.75,-20.9452 -46.75,-46.75 0,-25.8048 20.9452,-46.75 46.75,-46.75 z"
             id="path3288"
             inkscape:connector-curvature="0" />
          <path
             id="path3290"
             d="m 126.21875,178.46538 c -16.58823,0 -30.057569,13.45469 -30.057569,30.04292 0,16.58824 13.469339,30.05757 30.057569,30.05757 16.58823,0 30.05756,-13.46933 30.05757,-30.05757 0,-16.58823 -13.46934,-30.04292 -30.05757,-30.04292 z m 0,8.12961 c 12.09559,0 21.91332,9.81772 21.91332,21.91331 0,12.09559 -9.81773,21.91332 -21.91332,21.91332 -12.09559,0 -21.91332,-9.81773 -21.91332,-21.91332 0,-12.09559 9.81773,-21.91331 21.91332,-21.91331 z"
             style="fill:#ffffff;fill-opacity:1;stroke:none"
             inkscape:connector-curvature="0" />
        </g>
        <path
           sodipodi:nodetypes="csssssssssssccsssssssssssc"
           d="m 383.33594,252.87631 c 0.002,0.002 -1.5e-4,3.5e-4 0,0 0.0146,-0.0316 0.009,0.0203 0,0 -0.11592,-0.26922 -0.26034,-0.0655 -0.25412,0.0751 0.0159,0.35974 0.4665,0.48739 0.76463,0.42342 0.7547,-0.16195 0.98874,-1.07634 0.78867,-1.72839 -0.42331,-1.37962 -2.11429,-1.76672 -3.33882,-1.30707 -2.2948,0.86138 -2.89194,3.71788 -2.00257,5.79444 1.52682,3.56491 6.03381,4.43882 9.30639,2.89942 5.25771,-2.47323 6.48511,-9.21683 4.02217,-14.0969 -3.75686,-7.4439 -13.429,-9.11177 -20.39834,-5.39596 -10.19675,5.43652 -12.40263,18.83909 -7.04625,28.4525 7.57314,13.59193 24.00504,13.90326 36.89267,6.45797 m -18.73443,-21.57456 c 0.003,-5.5e-4 2.2e-4,3e-4 0,0 -0.0211,-0.0277 0.0126,-0.0181 0,0 -0.0775,0.11177 -0.0327,0.26436 0.0647,0.30635 0.33067,0.14258 0.64971,-0.18181 0.73378,-0.47491 0.21277,-0.74196 -0.48345,-1.37928 -1.15284,-1.51007 -1.41634,-0.27672 -2.55458,1.03235 -2.72616,2.32899 -0.32157,2.42997 1.91653,4.30268 4.16718,4.49674 3.86377,0.33312 6.75832,-3.23034 6.94261,-6.84221 0.29606,-5.80281 -5.07358,-10.06305 -10.53846,-10.19024 -8.33595,-0.19402 -14.36464,7.55109 -14.37128,15.44914 -0.01,11.55547 10.77641,19.98235 21.77544,19.62204 15.29843,-0.50112 11.37908,-11.53936 13.83949,-1.61127"
           style="fill:#ffffff;fill-opacity:1;fill-rule:evenodd;stroke:none"
           id="path3484"
           inkscape:connector-curvature="0" />
      </g>
      <g
         transform="matrix(0.5599607,0,0,-0.5599607,195.70822,331.82795)"
         id="g3512">
        <g
           transform="matrix(0.8607087,0,0,0.8607087,276.84221,78.286909)"
           id="g3516">
          <path
             style="fill:#ffffff;fill-opacity:1;stroke:none"
             d="m 126.21875,144.40625 c -35.38944,0 -64.125,28.70431 -64.125,64.09375 0,35.38944 28.73556,64.12499 64.125,64.125 35.38944,0 64.12499,-28.73556 64.125,-64.125 0,-35.38944 -28.73556,-64.09374 -64.125,-64.09375 z m 0,17.34375 c 25.8048,0 46.75,20.9452 46.75,46.75 0,25.80481 -20.9452,46.75 -46.75,46.75 -25.8048,0 -46.75,-20.9452 -46.75,-46.75 0,-25.8048 20.9452,-46.75 46.75,-46.75 z"
             id="path3518"
             inkscape:connector-curvature="0" />
          <path
             id="path3520"
             d="m 126.21875,178.46538 c -16.58823,0 -30.057569,13.45469 -30.057569,30.04292 0,16.58824 13.469339,30.05757 30.057569,30.05757 16.58823,0 30.05756,-13.46933 30.05757,-30.05757 0,-16.58823 -13.46934,-30.04292 -30.05757,-30.04292 z m 0,8.12961 c 12.09559,0 21.91332,9.81772 21.91332,21.91331 0,12.09559 -9.81773,21.91332 -21.91332,21.91332 -12.09559,0 -21.91332,-9.81773 -21.91332,-21.91332 0,-12.09559 9.81773,-21.91331 21.91332,-21.91331 z"
             style="fill:#ffffff;fill-opacity:1;stroke:none"
             inkscape:connector-curvature="0" />
        </g>
        <g
           id="g3528"
           transform="matrix(0.8607087,0,0,0.8607087,276.84221,78.286909)">
          <path
             id="path3530"
             d="m 126.21875,144.40625 c -35.38944,0 -64.125,28.70431 -64.125,64.09375 0,35.38944 28.73556,64.12499 64.125,64.125 35.38944,0 64.12499,-28.73556 64.125,-64.125 0,-35.38944 -28.73556,-64.09374 -64.125,-64.09375 z m 0,17.34375 c 25.8048,0 46.75,20.9452 46.75,46.75 0,25.80481 -20.9452,46.75 -46.75,46.75 -25.8048,0 -46.75,-20.9452 -46.75,-46.75 0,-25.8048 20.9452,-46.75 46.75,-46.75 z"
             style="fill:#ffffff;fill-opacity:1;stroke:none"
             inkscape:connector-curvature="0" />
          <path
             style="fill:#ffffff;fill-opacity:1;stroke:none"
             d="m 126.21875,178.46538 c -16.58823,0 -30.057569,13.45469 -30.057569,30.04292 0,16.58824 13.469339,30.05757 30.057569,30.05757 16.58823,0 30.05756,-13.46933 30.05757,-30.05757 0,-16.58823 -13.46934,-30.04292 -30.05757,-30.04292 z m 0,8.12961 c 12.09559,0 21.91332,9.81772 21.91332,21.91331 0,12.09559 -9.81773,21.91332 -21.91332,21.91332 -12.09559,0 -21.91332,-9.81773 -21.91332,-21.91332 0,-12.09559 9.81773,-21.91331 21.91332,-21.91331 z"
             id="path3532"
             inkscape:connector-curvature="0" />
        </g>
        <path
           id="path3552"
           style="fill:#ffffff;fill-opacity:1;fill-rule:evenodd;stroke:none"
           d="m 383.33594,252.87631 c 0.002,0.002 -1.5e-4,3.5e-4 0,0 0.0146,-0.0316 0.009,0.0203 0,0 -0.11592,-0.26922 -0.26034,-0.0655 -0.25412,0.0751 0.0159,0.35974 0.4665,0.48739 0.76463,0.42342 0.7547,-0.16195 0.98874,-1.07634 0.78867,-1.72839 -0.42331,-1.37962 -2.11429,-1.76672 -3.33882,-1.30707 -2.2948,0.86138 -2.89194,3.71788 -2.00257,5.79444 1.52682,3.56491 6.03381,4.43882 9.30639,2.89942 5.25771,-2.47323 6.48511,-9.21683 4.02217,-14.0969 -3.75686,-7.4439 -13.429,-9.11177 -20.39834,-5.39596 -10.19675,5.43652 -12.40263,18.83909 -7.04625,28.4525 7.57314,13.59193 25.62203,16.44424 38.50966,8.99895 m -20.35142,-24.11554 c 0.003,-5.5e-4 2.2e-4,3e-4 0,0 -0.0211,-0.0277 0.0126,-0.0181 0,0 -0.0775,0.11177 -0.0327,0.26436 0.0647,0.30635 0.33067,0.14258 0.64971,-0.18181 0.73378,-0.47491 0.21277,-0.74196 -0.48345,-1.37928 -1.15284,-1.51007 -1.41634,-0.27672 -2.55458,1.03235 -2.72616,2.32899 -0.32157,2.42997 1.91653,4.30268 4.16718,4.49674 3.86377,0.33312 6.75832,-3.23034 6.94261,-6.84221 0.29606,-5.80281 -5.07358,-10.06305 -10.53846,-10.19024 -8.33595,-0.19402 -14.36464,7.55109 -14.37128,15.44914 -0.01,11.55547 10.77641,19.98235 21.77544,19.62204 15.29843,-0.50112 12.99607,-8.99838 15.45648,0.92971"
           sodipodi:nodetypes="csssssssssssccsssssssssssc"
           inkscape:connector-curvature="0" />
      </g>
      <g
         transform="matrix(0.4632766,0,0,0.4632766,144.43674,176.99687)"
         id="g3566">
        <g
           id="g3570"
           transform="matrix(0.8607087,0,0,0.8607087,276.84221,78.286909)">
          <path
             id="path3572"
             d="m 126.21875,144.40625 c -35.38944,0 -64.125,28.70431 -64.125,64.09375 0,35.38944 28.73556,64.12499 64.125,64.125 35.38944,0 64.12499,-28.73556 64.125,-64.125 0,-35.38944 -28.73556,-64.09374 -64.125,-64.09375 z m 0,17.34375 c 25.8048,0 46.75,20.9452 46.75,46.75 0,25.80481 -20.9452,46.75 -46.75,46.75 -25.8048,0 -46.75,-20.9452 -46.75,-46.75 0,-25.8048 20.9452,-46.75 46.75,-46.75 z"
             style="fill:#ffffff;fill-opacity:1;stroke:none"
             inkscape:connector-curvature="0" />
          <path
             style="fill:#ffffff;fill-opacity:1;stroke:none"
             d="m 126.21875,178.46538 c -16.58823,0 -30.057569,13.45469 -30.057569,30.04292 0,16.58824 13.469339,30.05757 30.057569,30.05757 16.58823,0 30.05756,-13.46933 30.05757,-30.05757 0,-16.58823 -13.46934,-30.04292 -30.05757,-30.04292 z m 0,8.12961 c 12.09559,0 21.91332,9.81772 21.91332,21.91331 0,12.09559 -9.81773,21.91332 -21.91332,21.91332 -12.09559,0 -21.91332,-9.81773 -21.91332,-21.91332 0,-12.09559 9.81773,-21.91331 21.91332,-21.91331 z"
             id="path3574"
             inkscape:connector-curvature="0" />
        </g>
        <g
           transform="matrix(0.1504553,0,0,0.1504553,311.00012,181.56628)"
           id="g3576">
          <path
             style="fill:#ffffff;fill-opacity:1;stroke:none"
             d="m 126.21875,144.40625 c -35.38944,0 -64.125,28.70431 -64.125,64.09375 0,35.38944 28.73556,64.12499 64.125,64.125 35.38944,0 64.12499,-28.73556 64.125,-64.125 0,-35.38944 -28.73556,-64.09374 -64.125,-64.09375 z m 0,17.34375 c 25.8048,0 46.75,20.9452 46.75,46.75 0,25.80481 -20.9452,46.75 -46.75,46.75 -25.8048,0 -46.75,-20.9452 -46.75,-46.75 0,-25.8048 20.9452,-46.75 46.75,-46.75 z"
             id="path3578"
             inkscape:connector-curvature="0" />
          <path
             id="path3580"
             d="m 126.21875,178.46538 c -16.58823,0 -30.057569,13.45469 -30.057569,30.04292 0,16.58824 13.469339,30.05757 30.057569,30.05757 16.58823,0 30.05756,-13.46933 30.05757,-30.05757 0,-16.58823 -13.46934,-30.04292 -30.05757,-30.04292 z m 0,8.12961 c 12.09559,0 21.91332,9.81772 21.91332,21.91331 0,12.09559 -9.81773,21.91332 -21.91332,21.91332 -12.09559,0 -21.91332,-9.81773 -21.91332,-21.91332 0,-12.09559 9.81773,-21.91331 21.91332,-21.91331 z"
             style="fill:#ffffff;fill-opacity:1;stroke:none"
             inkscape:connector-curvature="0" />
        </g>
        <g
           transform="matrix(0.8607087,0,0,0.8607087,276.84221,78.286909)"
           id="g3582">
          <path
             style="fill:#ffffff;fill-opacity:1;stroke:none"
             d="m 126.21875,144.40625 c -35.38944,0 -64.125,28.70431 -64.125,64.09375 0,35.38944 28.73556,64.12499 64.125,64.125 35.38944,0 64.12499,-28.73556 64.125,-64.125 0,-35.38944 -28.73556,-64.09374 -64.125,-64.09375 z m 0,17.34375 c 25.8048,0 46.75,20.9452 46.75,46.75 0,25.80481 -20.9452,46.75 -46.75,46.75 -25.8048,0 -46.75,-20.9452 -46.75,-46.75 0,-25.8048 20.9452,-46.75 46.75,-46.75 z"
             id="path3584"
             inkscape:connector-curvature="0" />
          <path
             id="path3586"
             d="m 126.21875,178.46538 c -16.58823,0 -30.057569,13.45469 -30.057569,30.04292 0,16.58824 13.469339,30.05757 30.057569,30.05757 16.58823,0 30.05756,-13.46933 30.05757,-30.05757 0,-16.58823 -13.46934,-30.04292 -30.05757,-30.04292 z m 0,8.12961 c 12.09559,0 21.91332,9.81772 21.91332,21.91331 0,12.09559 -9.81773,21.91332 -21.91332,21.91332 -12.09559,0 -21.91332,-9.81773 -21.91332,-21.91332 0,-12.09559 9.81773,-21.91331 21.91332,-21.91331 z"
             style="fill:#ffffff;fill-opacity:1;stroke:none"
             inkscape:connector-curvature="0" />
        </g>
        <path
           sodipodi:nodetypes="csssssssssssccsssssssssssc"
           d="m 383.33594,252.87631 c 0.002,0.002 -1.5e-4,3.5e-4 0,0 0.0146,-0.0316 0.009,0.0203 0,0 -0.11592,-0.26922 -0.26034,-0.0655 -0.25412,0.0751 0.0159,0.35974 0.4665,0.48739 0.76463,0.42342 0.7547,-0.16195 0.98874,-1.07634 0.78867,-1.72839 -0.42331,-1.37962 -2.11429,-1.76672 -3.33882,-1.30707 -2.2948,0.86138 -2.89194,3.71788 -2.00257,5.79444 1.52682,3.56491 6.03381,4.43882 9.30639,2.89942 5.25771,-2.47323 6.48511,-9.21683 4.02217,-14.0969 -3.75686,-7.4439 -13.429,-9.11177 -20.39834,-5.39596 -10.19675,5.43652 -12.40263,18.83909 -7.04625,28.4525 7.57314,13.59193 25.62203,16.44424 38.50966,8.99895 m -20.35142,-24.11554 c 0.003,-5.5e-4 2.2e-4,3e-4 0,0 -0.0211,-0.0277 0.0126,-0.0181 0,0 -0.0775,0.11177 -0.0327,0.26436 0.0647,0.30635 0.33067,0.14258 0.64971,-0.18181 0.73378,-0.47491 0.21277,-0.74196 -0.48345,-1.37928 -1.15284,-1.51007 -1.41634,-0.27672 -2.55458,1.03235 -2.72616,2.32899 -0.32157,2.42997 1.91653,4.30268 4.16718,4.49674 3.86377,0.33312 6.75832,-3.23034 6.94261,-6.84221 0.29606,-5.80281 -5.07358,-10.06305 -10.53846,-10.19024 -8.33595,-0.19402 -14.36464,7.55109 -14.37128,15.44914 -0.01,11.55547 10.77641,19.98235 21.77544,19.62204 15.29843,-0.50112 12.99607,-8.99838 15.45648,0.92971"
           style="fill:#ffffff;fill-opacity:1;fill-rule:evenodd;stroke:none"
           id="path3606"
           inkscape:connector-curvature="0" />
      </g>
      <path
         sodipodi:type="star"
         style="fill:#ffffff;fill-opacity:1;stroke:none;filter:url(#filter3700)"
         id="path3698"
         sodipodi:sides="5"
         sodipodi:cx="162.94955"
         sodipodi:cy="203.83304"
         sodipodi:r1="25.691782"
         sodipodi:r2="26.272663"
         sodipodi:arg1="0.48689923"
         sodipodi:arg2="-0.54381798"
         inkscape:flatsided="false"
         inkscape:rounded="1.88"
         inkscape:randomized="0"
         d="m 185.65564,215.85391 c 44.38554,18.68246 43.02745,-46.79149 -0.22353,-25.61453 -79.85904,39.10135 -19.41652,-49.69941 -26.89852,38.90308 -4.05218,47.98636 57.79757,26.46217 24.29179,-8.12791 -61.86539,-63.86748 41.26692,-33.82417 -45.31113,-13.5603 -46.889927,10.97474 -7.30658,63.14601 15.23669,20.5912 41.62412,-78.57362 44.92087,28.79493 -1.10531,-47.2838 -24.92738,-41.2036 -62.313277,12.56421 -14.875,20.85397 87.59052,15.30631 -13.50428,51.62041 44.62802,-15.6627 31.48396,-36.43996 -31.20514,-55.3809 -24.42994,-7.70273 12.50979,88.03344 -53.26698,3.10824 28.68693,37.60372 z"
         transform="matrix(0.254211,0,0,0.254211,206.58577,132.64824)" />
      <g
         style="filter:url(#filter3670)"
         id="g3662"
         transform="matrix(0.6107311,0.5201462,0.5201462,-0.6107311,73.7969,164.03559)">
        <path
           sodipodi:nodetypes="csssssssssssccsssssssssssc"
           d="m 236.05574,132.77327 c 0.005,-7.7e-4 1.8e-4,-6.2e-4 0,0 -0.0164,0.0585 0.0345,-0.0171 0,0 -0.45875,0.22658 -0.42009,-0.20759 -0.25268,-0.38743 0.42823,-0.4601 1.17153,-0.11971 1.4953,0.30271 0.81961,1.06935 0.0957,2.54934 -0.90808,3.18939 -2.12394,1.35425 -4.80913,-0.0451 -5.91613,-2.04182 -2.0746,-3.74185 0.36475,-8.21358 3.8968,-9.96648 6.06355,-3.00927 13.0418,0.93026 15.64838,6.67973 4.18767,9.23705 -1.81346,19.58752 -10.60945,23.285 -13.4171,5.64006 -28.15769,-3.09016 -33.2136,-15.91562 -7.39722,-18.76471 4.84001,-39.071442 22.83804,-45.784199 25.44653,-9.490829 52.65921,7.145931 61.35879,31.625479 m -54.33737,9.01324 c 0.003,0.004 6.2e-4,-1.3e-4 0,0 -0.0594,0.013 -0.004,0.0384 0,0 0.0235,-0.23624 0.25575,-0.38827 0.43264,-0.33388 0.60078,0.18476 0.65762,0.97692 0.4376,1.46154 -0.55698,1.22679 -2.20345,1.28572 -3.241,0.70193 -2.1953,-1.23523 -2.22631,-4.26302 -0.98683,-6.18028 2.32283,-3.59304 7.41643,-3.54861 10.62687,-1.25927 5.51144,3.9302 5.32491,11.94151 1.48201,16.94976 -6.17398,8.04621 -18.1311,7.63034 -25.53714,1.6144 -11.29692,-9.17652 -10.5426,-26.29178 -1.61268,-36.79471 13.06521,-15.366623 36.9357,-14.357481 51.14414,-1.43039 19.76238,17.98016 7.08595,26.66612 21.59176,16.25766"
           style="fill:#ffffff;fill-opacity:1;fill-rule:evenodd;stroke:none"
           id="path3664"
           inkscape:connector-curvature="0" />
        <path
           id="path3666"
           style="fill:#ffffff;fill-opacity:1;fill-rule:evenodd;stroke:none"
           d="m 207.73997,83.655621 c 0.002,0.0014 -8e-5,2.99e-4 0,0 0.007,-0.02804 0.0101,0.01536 0,0 -0.13392,-0.204042 -0.22293,-0.01614 -0.19755,0.09828 0.065,0.292702 0.45291,0.332326 0.68815,0.236832 0.59547,-0.241735 0.65539,-1.025344 0.3972,-1.531142 -0.54627,-1.070204 -1.98878,-1.143533 -2.92652,-0.589849 -1.75743,1.037613 -1.83474,3.466173 -0.80568,5.040595 1.76661,2.70284 5.58855,2.76886 8.04987,1.034109 3.95435,-2.787044 3.98736,-8.494049 1.26328,-12.140204 -4.15524,-5.561759 -12.32726,-5.533197 -17.5058,-1.480144 -7.57664,5.929962 -7.45076,17.238629 -1.67072,24.348497 8.17212,10.052285 23.38414,9.785775 32.87734,1.820155 M 207.73997,83.655621 c 0.002,-8.39e-4 2.4e-4,1.97e-4 0,0 -0.0213,-0.01971 0.008,-0.0167 0,0 -0.0474,0.102831 0.0114,0.221483 0.0973,0.241864 0.29173,0.06918 0.50652,-0.24288 0.53315,-0.495351 0.0674,-0.639145 -0.59554,-1.061239 -1.16334,-1.071852 -1.20134,-0.02246 -1.94573,1.215305 -1.89927,2.303327 0.0871,2.039028 2.19269,3.251581 4.06626,3.085809 3.21641,-0.284593 5.07558,-3.62451 4.7053,-6.612885 -0.5949,-4.801091 -5.61303,-7.519399 -10.11265,-6.834815 -6.86358,1.044253 -10.68911,8.265592 -9.55443,14.743007 1.66015,9.47702 11.72132,14.830105 20.68862,12.946885 12.47252,-2.619334 9.35794,-9.254816 12.80867,-1.46886"
           sodipodi:nodetypes="csssssssssssccsssssssssssc"
           inkscape:connector-curvature="0" />
        <path
           sodipodi:nodetypes="csssssssssssccsssssssssssc"
           d="m 289.4035,100.44919 c -7.2e-4,0.001 -1.9e-4,-2e-5 0,0 0.0174,0.002 -0.008,0.007 0,0 0.11242,-0.0959 -0.007,-0.13514 -0.074,-0.11122 -0.17091,0.0612 -0.1653,0.29728 -0.0901,0.43136 0.19037,0.33939 0.66566,0.31598 0.94994,0.12253 0.6015,-0.40932 0.53619,-1.281457 0.13246,-1.80282 -0.75658,-0.977099 -2.22139,-0.839409 -3.08919,-0.101833 -1.48978,1.266213 -1.23966,3.567223 -0.0109,4.914323 1.97411,2.16424 5.40507,1.75138 7.38894,-0.16155 3.02616,-2.91793 2.3894,-7.825063 -0.43809,-10.628745 -4.13685,-4.102027 -10.92092,-3.168984 -14.75391,0.842409 -5.41925,5.671517 -4.10579,14.789856 1.39929,19.888896 m 8.58558,-13.39335 c 6.6e-4,0.001 -1e-4,1.6e-4 0,0 0.0102,-0.0143 0.0106,0.003 0,0 -0.0654,-0.0207 -0.13219,0.0236 -0.13792,0.0768 -0.0195,0.1805 0.18431,0.28588 0.33799,0.28273 0.38908,-0.008 0.59239,-0.43823 0.55572,-0.78014 -0.0776,-0.7234 -0.87762,-1.076738 -1.52772,-0.966339 -1.21833,0.206919 -1.78712,1.563789 -1.54548,2.676749 0.41483,1.91067 2.56223,2.77432 4.32941,2.3253 2.83912,-0.7214 4.09166,-3.94211 3.33924,-6.593334 -1.14772,-4.044084 -5.77595,-5.794732 -9.58119,-4.621969 -5.56741,1.715869 -8.02041,8.165933 -6.20918,13.410213 2.51921,7.2942 6.2693,4.92004 1.85355,7.58337"
           style="fill:#ffffff;fill-opacity:1;fill-rule:evenodd;stroke:none"
           id="path3668"
           inkscape:connector-curvature="0" />
      </g>
      <g
         transform="matrix(0.1467064,0,0,0.1467064,301.42867,236.65153)"
         id="g3650">
        <path
           style="fill:#ffffff;fill-opacity:1;stroke:none"
           d="m 126.21875,144.40625 c -35.38944,0 -64.125,28.70431 -64.125,64.09375 0,35.38944 28.73556,64.12499 64.125,64.125 35.38944,0 64.12499,-28.73556 64.125,-64.125 0,-35.38944 -28.73556,-64.09374 -64.125,-64.09375 z m 0,17.34375 c 25.8048,0 46.75,20.9452 46.75,46.75 0,25.80481 -20.9452,46.75 -46.75,46.75 -25.8048,0 -46.75,-20.9452 -46.75,-46.75 0,-25.8048 20.9452,-46.75 46.75,-46.75 z"
           id="path3652"
           inkscape:connector-curvature="0" />
        <path
           id="path3654"
           d="m 126.21875,178.46538 c -16.58823,0 -30.057569,13.45469 -30.057569,30.04292 0,16.58824 13.469339,30.05757 30.057569,30.05757 16.58823,0 30.05756,-13.46933 30.05757,-30.05757 0,-16.58823 -13.46934,-30.04292 -30.05757,-30.04292 z m 0,8.12961 c 12.09559,0 21.91332,9.81772 21.91332,21.91331 0,12.09559 -9.81773,21.91332 -21.91332,21.91332 -12.09559,0 -21.91332,-9.81773 -21.91332,-21.91332 0,-12.09559 9.81773,-21.91331 21.91332,-21.91331 z"
           style="fill:#ffffff;fill-opacity:1;stroke:none"
           inkscape:connector-curvature="0" />
      </g>
      <g
         id="g3656"
         transform="matrix(0.09771038,0,0,0.09771038,315.24052,230.26498)">
        <path
           id="path3658"
           d="m 126.21875,144.40625 c -35.38944,0 -64.125,28.70431 -64.125,64.09375 0,35.38944 28.73556,64.12499 64.125,64.125 35.38944,0 64.12499,-28.73556 64.125,-64.125 0,-35.38944 -28.73556,-64.09374 -64.125,-64.09375 z m 0,17.34375 c 25.8048,0 46.75,20.9452 46.75,46.75 0,25.80481 -20.9452,46.75 -46.75,46.75 -25.8048,0 -46.75,-20.9452 -46.75,-46.75 0,-25.8048 20.9452,-46.75 46.75,-46.75 z"
           style="fill:#ffffff;fill-opacity:1;stroke:none"
           inkscape:connector-curvature="0" />
        <path
           style="fill:#ffffff;fill-opacity:1;stroke:none"
           d="m 126.21875,178.46538 c -16.58823,0 -30.057569,13.45469 -30.057569,30.04292 0,16.58824 13.469339,30.05757 30.057569,30.05757 16.58823,0 30.05756,-13.46933 30.05757,-30.05757 0,-16.58823 -13.46934,-30.04292 -30.05757,-30.04292 z m 0,8.12961 c 12.09559,0 21.91332,9.81772 21.91332,21.91331 0,12.09559 -9.81773,21.91332 -21.91332,21.91332 -12.09559,0 -21.91332,-9.81773 -21.91332,-21.91332 0,-12.09559 9.81773,-21.91331 21.91332,-21.91331 z"
           id="path3660"
           inkscape:connector-curvature="0" />
      </g>
      <path
         id="path3704"
         style="opacity:0.2;fill:#ffffff;fill-opacity:1;fill-rule:evenodd;stroke:none;filter:url(#filter3474)"
         d="M 373.82647,9.1947481 C 321.49122,-12.306164 230.30772,63.25072 334.00723,218.82243 348.43662,241.37427 321.1875,232.13552 328.69961,231.38685 223.11475,58.84704 320.96767,-14.683318 373.56705,9.1947481"
         sodipodi:nodetypes="cccc"
         transform="matrix(-0.8022122,0,0,-0.8022122,634.88155,164.2541)"
         inkscape:connector-curvature="0" />
    </g>
  </g>
</svg>
